<?xml version="1.0" encoding="UTF-8" standalone="no"?>
<!-- Created with Inkscape (http://www.inkscape.org/) -->

<svg
   xmlns:dc="http://purl.org/dc/elements/1.1/"
   xmlns:cc="http://creativecommons.org/ns#"
   xmlns:rdf="http://www.w3.org/1999/02/22-rdf-syntax-ns#"
   xmlns:svg="http://www.w3.org/2000/svg"
   xmlns="http://www.w3.org/2000/svg"
   xmlns:xlink="http://www.w3.org/1999/xlink"
   xmlns:sodipodi="http://sodipodi.sourceforge.net/DTD/sodipodi-0.dtd"
   xmlns:inkscape="http://www.inkscape.org/namespaces/inkscape"
   height="48"
   id="svg2"
   inkscape:export-filename="purple-hat.png"
   inkscape:export-xdpi="90.000000"
   inkscape:export-ydpi="90.000000"
   inkscape:version="0.48.3.1 r9886"
   sodipodi:docname="purple-hat.svg"
   sodipodi:version="0.32"
   width="128"
   version="1.1">
  <metadata
     id="metadata3">
    <rdf:RDF>
      <cc:Work
         rdf:about="">
        <dc:title>purple hat</dc:title>
        <dc:description />
        <dc:subject>
          <rdf:Bag>
            <rdf:li>hat</rdf:li>
            <rdf:li>clothing</rdf:li>
          </rdf:Bag>
        </dc:subject>
        <dc:publisher>
          <cc:Agent
             rdf:about="http://www.openclipart.org/">
            <dc:title>Open Clip Art Library</dc:title>
          </cc:Agent>
        </dc:publisher>
        <dc:creator>
          <cc:Agent>
            <dc:title>Nicu Buculei</dc:title>
          </cc:Agent>
        </dc:creator>
        <dc:rights>
          <cc:Agent>
            <dc:title>Nicu Buculei</dc:title>
          </cc:Agent>
        </dc:rights>
        <dc:date />
        <dc:format>image/svg+xml</dc:format>
        <dc:type
           rdf:resource="http://purl.org/dc/dcmitype/StillImage" />
        <cc:license
           rdf:resource="http://web.resource.org/cc/PublicDomain" />
        <dc:language>en</dc:language>
      </cc:Work>
      <cc:License
         rdf:about="http://web.resource.org/cc/PublicDomain">
        <cc:permits
           rdf:resource="http://web.resource.org/cc/Reproduction" />
        <cc:permits
           rdf:resource="http://web.resource.org/cc/Distribution" />
        <cc:permits
           rdf:resource="http://web.resource.org/cc/DerivativeWorks" />
      </cc:License>
    </rdf:RDF>
  </metadata>
  <defs
     id="defs3">
    <linearGradient
       id="linearGradient7792"
       inkscape:collect="always">
      <stop
         id="stop7794"
         offset="0"
         style="stop-color:#ffffff;stop-opacity:1;" />
      <stop
         id="stop7796"
         offset="1"
         style="stop-color:#ffffff;stop-opacity:0;" />
    </linearGradient>
    <linearGradient
       gradientTransform="matrix(0.170824,0,0,0.170824,1.255393,-21.95841)"
       gradientUnits="userSpaceOnUse"
       id="linearGradient1722"
       inkscape:collect="always"
       x1="367.35037"
       x2="416.91986"
       xlink:href="#linearGradient7792"
       y1="360.53241"
       y2="260.58954" />
    <linearGradient
       gradientTransform="matrix(0.170824,0,0,0.170824,1.255393,-21.95841)"
       gradientUnits="userSpaceOnUse"
       id="linearGradient1724"
       inkscape:collect="always"
       x1="407.50073"
       x2="400.89575"
       xlink:href="#linearGradient7792"
       y1="245.97594"
       y2="164.13118" />
    <linearGradient
       gradientTransform="translate(-7.666667,3.487179)"
       gradientUnits="userSpaceOnUse"
       id="linearGradient1726"
       inkscape:collect="always"
       x1="45.536491"
       x2="32.411266"
       xlink:href="#linearGradient7792"
       y1="48.355782"
       y2="27.909006" />
  </defs>
  <sodipodi:namedview
     bordercolor="#666666"
     borderopacity="1.0"
     id="base"
     inkscape:current-layer="layer1"
     inkscape:cx="64"
     inkscape:cy="40.477795"
     inkscape:document-units="px"
     inkscape:guide-bbox="true"
     inkscape:pageopacity="0.0"
     inkscape:pageshadow="2"
     inkscape:window-height="791"
     inkscape:window-width="1152"
     inkscape:window-x="194"
     inkscape:window-y="311"
     inkscape:zoom="5.1015625"
     pagecolor="#ffffff"
     showguides="true"
     showgrid="false"
     inkscape:window-maximized="0" />
  <g
     id="layer1"
     inkscape:groupmode="layer"
     inkscape:label="Layer 1"
     transform="translate(0,-80)">
    <g
       id="g1713"
       transform="matrix(1.0861596,0,0,1.0861596,-7.4778718,56.520214)">
      <path
         d="m 69.429498,22.954953 c -4.052582,1.850822 -4.72973,4.444319 -9.316847,0.574848 -9.029225,0.751443 -13.129234,10.791825 -15.904801,17.7609 0.959325,6.781141 -8.736666,6.199619 -12.978432,8.937218 -6.380423,2.92768 -13.124844,2.946704 -17.294816,9.157981 8.586725,6.908638 19.60893,4.820183 29.939711,5.503078 23.353488,-0.369743 46.667479,-1.317834 69.158547,-7.977083 5.55327,-1.076728 6.46592,-6.382089 0.9066,-8.063587 C 105.19867,45.52432 95.788231,44.965904 86.4484,45.122102 85.244279,39.790091 82.113011,33.553402 80.502898,28.16715 78.589545,23.413636 74.758219,21.649858 69.429498,22.954953 z"
         id="path1396"
         sodipodi:nodetypes="ccccccccccc"
         style="fill:#000000;fill-opacity:1;fill-rule:evenodd;stroke:none"
         inkscape:connector-curvature="0" />
      <g
         id="g1381"
         transform="translate(1.025641,12.71795)">
        <path
           d="m 44.469027,33.643132 c 0,0 -29.673362,9.507 -29.673362,12.820044 6.193954,8.930819 98.815175,2.016635 100.543715,-6.337999 -0.57618,-5.185638 -24.775811,-7.63441 -32.410217,-6.770136 -1.00832,-6.338001 -3.313046,-21.606817 -9.651047,-22.471089 -6.338,-0.864274 -7.948926,3.116724 -9.506998,3.45709 -1.386,0.302773 -3.809133,-3.2993 -7.922501,-1.728546 -6.193954,2.304728 -11.667681,15.556909 -11.37959,21.030636 z"
           id="path1381"
           sodipodi:nodetypes="ccccsccc"
           style="fill:#9300bb;fill-opacity:1;fill-rule:evenodd;stroke:none"
           inkscape:connector-curvature="0" />
        <path
           d="m 46.465929,24.497576 c 0,0 33.297539,2.956556 34.834955,2.444084 1.537416,-0.512472 3.385841,4.626218 1.677601,6.334458 -1.70824,1.70824 -35.294051,1.895733 -38.282993,0.600107 -0.585183,-2.031472 -0.233887,-5.411119 1.770437,-9.378649 z"
           id="path2160"
           sodipodi:nodetypes="csscc"
           style="fill:#000000;fill-opacity:1;fill-rule:evenodd;stroke:none"
           inkscape:connector-curvature="0" />
        <path
           d="m 75.175813,27.270965 c 0,0 -10.573138,-1.922389 -11.030849,-0.457711 -0.457712,1.464675 -2.242787,6.682588 -0.595026,7.277615 1.647762,0.595024 10.115425,0.274626 11.488562,-0.137314 1.373134,-0.411942 0.457711,-6.133337 0.137313,-6.68259 z"
           id="path10099"
           sodipodi:nodetypes="csssc"
           style="fill:url(#linearGradient1722);fill-opacity:1;fill-rule:evenodd;stroke:none"
           inkscape:connector-curvature="0" />
        <path
           d="M 64.979542,17.411142 C 64.439923,10.592314 75.477593,7.8942173 77.685127,16.380959 74.790805,12.848904 67.187077,14.811156 64.979542,17.411142 z"
           id="path12403"
           sodipodi:nodetypes="ccc"
           style="fill:url(#linearGradient1724);fill-opacity:1;fill-rule:evenodd;stroke:none"
           inkscape:connector-curvature="0" />
        <path
           d="m 15.815877,46.307155 c 4.791748,-4.583412 18.51222,-7.738228 27.946905,-11.696629 1.805731,0.849561 1.856777,0.152022 3.731809,0.06273 1.875032,-0.08929 -24.643277,11.233264 -22.500383,13.644019 0,0.714297 -5.071118,1.025641 -9.178331,-2.010125 z"
           id="path13251"
           sodipodi:nodetypes="ccccc"
           style="fill:url(#linearGradient1726);fill-opacity:1;fill-rule:evenodd;stroke:none"
           inkscape:connector-curvature="0" />
      </g>
    </g>
  </g>
</svg>
